<?xml version="1.0" encoding="UTF-8"?>
<svg width="15px" height="10px" viewBox="0 0 15 10" version="1.1" xmlns="http://www.w3.org/2000/svg" xmlns:xlink="http://www.w3.org/1999/xlink">
    <!-- Generator: Sketch 50 (54983) - http://www.bohemiancoding.com/sketch -->
    <title>Atom / Flag / Canada@3x</title>
    <desc>Created with Sketch.</desc>
    <defs></defs>
    <g id="Atom-/-Flag-/-Canada" stroke="none" stroke-width="1" fill="none" fill-rule="evenodd">
        <polygon id="Fill-1" fill="#FFFFFF" points="3.74602941 10.0342478 11.2612059 10.0342478 11.2612059 0 3.74602941 0"></polygon>
        <polygon id="Fill-2" fill="#F30004" points="0 10.0342478 3.74602941 10.0342478 3.74602941 0 0 0"></polygon>
        <polygon id="Fill-3" fill="#F30004" points="11.2612059 10.0342478 15.0070588 10.0342478 15.0070588 0 11.2612059 0"></polygon>
        <path d="M4.57049118,5.08817699 L5.90505,6.2480885 C6.14972647,6.46092035 5.96002059,6.67817699 5.84266765,6.88384071 L7.37399118,6.69472566 L7.32696176,8.23083186 L7.65687353,8.23083186 L7.58602059,6.69472566 L9.11734412,6.88384071 C9.00740294,6.66348673 8.87505,6.39534513 9.10543235,6.19959292 L10.4131676,5.08817699 C10.2878735,5.03773451 10.1403441,5.01959292 10.1108735,4.878 C10.0607559,4.63684956 10.2479029,4.13941593 10.3407265,3.8720708 C10.0760206,3.97941593 9.72952059,4.0619823 9.50478529,4.03915044 C9.38169706,4.02658407 9.31155,3.70870796 9.26019706,3.59950442 L8.57178529,4.33056637 C8.38843235,4.52507965 8.31872647,4.43481416 8.37043235,4.18561062 L8.69328529,2.63083186 L8.23225588,2.8920708 C8.09663824,2.96915044 8.05199118,2.97720354 7.97549118,2.81976991 L7.49169706,1.82746903 L6.99519706,2.82339823 C6.91834412,2.97755752 6.91075588,2.98118584 6.76587353,2.90153982 L6.31402059,2.65419469 L6.59072647,4.19215929 C6.63475588,4.43516814 6.58834412,4.52366372 6.39634412,4.31224779 L5.74843235,3.59950442 C5.68569706,3.76658407 5.60707941,3.97746903 5.48937353,4.04835398 C5.34810882,4.09552212 4.94734412,3.96189381 4.66472647,3.88313274 C4.75613824,4.14720354 4.97081471,4.60215929 4.93260882,4.84968142 C4.90790294,5.0100354 4.71528529,5.03215929 4.57049118,5.08817699" id="Fill-4" fill="#F30004"></path>
    </g>
</svg>