<?xml version="1.0" encoding="UTF-8"?>
<svg width="15px" height="10px" viewBox="0 0 15 10" version="1.1" xmlns="http://www.w3.org/2000/svg" xmlns:xlink="http://www.w3.org/1999/xlink">
    <!-- Generator: Sketch 50 (54983) - http://www.bohemiancoding.com/sketch -->
    <title>Atom / Flag / China@3x</title>
    <desc>Created with Sketch.</desc>
    <defs></defs>
    <g id="Atom-/-Flag-/-China" stroke="none" stroke-width="1" fill="none" fill-rule="evenodd">
        <polygon id="Fill-1" fill="#F30004" points="0 10.0341593 15.0068824 10.0341593 15.0068824 0 0 0"></polygon>
        <path d="M5.17641176,0.520274336 L5.17138235,0.894345133 L5.52485294,1.01319469 L5.16882353,1.12399115 L5.16520588,1.49806195 L4.95017647,1.19248673 L4.59423529,1.30478761 L4.81764706,1.00514159 L4.60111765,0.700539823 L4.95423529,0.82080531 L5.17641176,0.520274336 Z M6.40394118,1.69885841 L6.18855882,2.00434513 L6.41276471,2.30310619 L6.05673529,2.19204425 L5.8425,2.49832743 L5.83782353,2.12425664 L5.48126471,2.01452212 L5.83438235,1.89452212 L5.82838235,1.52053982 L6.05135294,1.82036283 L6.40394118,1.69885841 Z M6.492,3.36195575 L6.18591176,3.57593805 L6.29558824,3.93337168 L5.99823529,3.70770796 L5.69320588,3.92266372 L5.81541176,3.56921239 L5.51708824,3.34469912 L5.89005882,3.35213274 L6.01085294,2.99815044 L6.11911765,3.35611504 L6.492,3.36195575 Z M5.51108824,4.51567257 L5.15779412,4.63567257 L5.16379412,5.00965487 L4.94082353,4.70983186 L4.58823529,4.8309823 L4.80361765,4.52576106 L4.57958824,4.22673451 L4.93561765,4.33806195 L5.15002941,4.03195575 L5.15452941,4.40593805 L5.51108824,4.51567257 Z M2.50129412,1.00337168 L2.84214706,2.0629292 L3.95232353,2.06080531 L3.05294118,2.71346018 L3.39794118,3.77160177 L2.50129412,3.11549558 L1.60447059,3.77160177 L1.94947059,2.71346018 L1.05017647,2.06080531 L2.16017647,2.0629292 L2.50129412,1.00337168 Z" id="Fill-2" fill="#FFDB00"></path>
    </g>
</svg>