<?xml version="1.0" encoding="UTF-8"?>
<svg width="429px" height="455px" viewBox="0 0 429 455" version="1.1" xmlns="http://www.w3.org/2000/svg" xmlns:xlink="http://www.w3.org/1999/xlink">
    <!-- Generator: Sketch 49 (51002) - http://www.bohemiancoding.com/sketch -->
    <title>Package login@3x</title>
    <desc>Created with Sketch.</desc>
    <defs></defs>
    <g id="Desktop" stroke="none" stroke-width="1" fill="none" fill-rule="evenodd" opacity="0.154608243">
        <g id="Login-Desktop" transform="translate(-1011.000000, 0.000000)" fill="#FFFFFF">
            <g id="Package-login" transform="translate(1011.000000, -53.000000)">
                <path d="M321.254416,164.763419 C319.958437,93.2010711 295.522483,50.5363543 274.294225,26.8828012 C346.347156,40.533965 408.020524,91.2745623 439.927417,164.763419 L321.254416,164.763419 Z M195.403684,26.9380021 C174.187154,50.5970752 149.786385,93.2562719 148.49627,164.763419 L30.0695633,164.763419 C61.953,91.390484 123.497357,40.6774871 195.403684,26.9380021 Z M173.108148,164.763419 C174.961223,67.8197322 222.120795,31.8287951 234.863615,23.8743563 C247.366003,31.7956746 294.748414,68.1674974 296.630809,164.763419 L173.108148,164.763419 Z M469.342043,172.607456 C431.28951,67.7534912 339.310164,0 234.99849,0 C130.710273,0 38.7250632,67.7479712 0.660802154,172.607456 C-0.623448833,176.145829 -0.0135762179,180.054047 2.29690273,183.095613 C4.60738167,186.137178 8.33698728,187.942245 12.3128876,187.942245 L80.7593603,187.942245 L144.848762,263.633615 C147.282389,266.509578 150.86539,268 154.489441,268 C157.18109,268 159.890332,267.177508 162.159762,265.477322 C167.478555,261.480783 168.358179,254.188754 164.118391,249.187559 L112.261627,187.942245 L222.707211,187.942245 L222.707211,256.407827 C222.707211,262.811123 228.213657,268 235.021947,268 C241.830236,268 247.336682,262.816643 247.336682,256.407827 L247.336682,187.942245 L354.298956,187.942245 L302.442192,249.187559 C298.202404,254.188754 299.082028,261.486303 304.400821,265.477322 C306.670251,267.177508 309.379493,268 312.071142,268 C315.689329,268 319.278194,266.504058 321.711821,263.633615 L385.801223,187.942245 L457.684093,187.942245 C461.659993,187.942245 465.383735,186.137178 467.700078,183.095613 C470.016421,180.048527 470.620429,176.145829 469.342043,172.607456 Z" id="Fill-1"></path>
                <path d="M350.929474,464.223821 C350.929474,474.712662 342.984729,483.25105 333.221375,483.25105 L116.076021,483.25105 L116.076021,292.743058 L185.666706,292.743058 L185.666706,385.875715 C185.666706,390.495519 188.067711,394.738196 191.897231,396.859535 C193.567496,397.790567 195.3916,398.244298 197.204716,398.244298 C199.545284,398.244298 201.880357,397.484151 203.858302,395.981536 L230.132,376.082202 L260.943982,396.411697 C264.498788,398.756955 268.976635,398.868914 272.619349,396.670972 C276.267558,394.484814 278.525712,390.354097 278.525712,385.869822 L278.525712,292.743058 L350.929474,292.743058 C350.929474,292.743058 350.929474,464.223821 350.929474,464.223821 Z M255.455185,292.743058 L255.455185,363.73719 L235.736176,350.726313 C233.873612,349.500651 231.780287,348.893712 229.686962,348.893712 C227.351889,348.893712 225.016815,349.653858 223.033376,351.156473 L208.731738,361.987085 L208.731738,292.743058 L255.455185,292.743058 Z M362.467484,268 L266.993196,268 L197.204716,268 L104.53801,268 C98.1646332,268 93,273.533158 93,280.374475 L93,495.625525 C93,502.460949 98.1591389,508 104.53801,508 L333.221375,508 C355.709506,508 374,488.365833 374,464.223821 L374,280.368583 C374,273.533158 368.840861,268 362.467484,268 Z" id="Fill-3"></path>
                <path d="M176.386282,448 L134.613718,448 C128.750903,448 124,454.707143 124,463 C124,471.292857 128.745848,478 134.613718,478 L176.386282,478 C182.249097,478 187,471.292857 187,463 C187,454.707143 182.249097,448 176.386282,448" id="Fill-5"></path>
            </g>
        </g>
    </g>
</svg>