<?xml version="1.0" encoding="UTF-8"?>
<svg width="157px" height="178px" viewBox="0 0 157 178" version="1.1" xmlns="http://www.w3.org/2000/svg" xmlns:xlink="http://www.w3.org/1999/xlink">
    <!-- Generator: Sketch 49 (51002) - http://www.bohemiancoding.com/sketch -->
    <title>Package footer@3x</title>
    <desc>Created with Sketch.</desc>
    <defs></defs>
    <g id="Symbols" stroke="none" stroke-width="1" fill="none" fill-rule="evenodd">
        <g id="Nav-/-Footer-iPad" transform="translate(-146.000000, 0.000000)" fill="#FFFFFF">
            <g transform="translate(0.000000, 0.521127)" id="Package-footer">
                <g transform="translate(146.000000, 0.000000)">
                    <path d="M106.786909,57.9118865 C106.356118,32.7587876 98.2334589,17.7627754 91.1770575,9.44890402 C115.127887,14.2470846 135.628487,32.0816485 146.234531,57.9118865 L106.786909,57.9118865 Z M64.953365,9.46830629 C57.9008622,17.7841179 49.7898993,32.7781898 49.3610572,57.9118865 L9.99530453,57.9118865 C20.5935515,32.1223932 41.0512675,14.2975305 64.953365,9.46830629 Z M57.5421943,57.9118865 C58.1581675,23.8376252 73.8342944,11.1873471 78.0700845,8.39148047 C82.225954,11.1757058 97.9761536,23.9598595 98.6018732,57.9118865 L57.5421943,57.9118865 Z M156.012131,60.6689486 C143.363239,23.8143425 112.788749,0 78.114918,0 C43.4488845,0 12.872445,23.8124023 0.219654628,60.6689486 C-0.207238159,61.912634 -0.00451281684,63.2863145 0.763504344,64.3553794 C1.5315215,65.4244443 2.77126494,66.0588984 4.09287823,66.0588984 L26.8448993,66.0588984 L48.1486037,92.6632869 C48.9575558,93.674145 50.1485672,94.1980062 51.3532235,94.1980062 C52.247944,94.1980062 53.1485124,93.9089124 53.9028846,93.3113226 C55.6708835,91.9065985 55.9632758,89.343559 54.5539448,87.5857136 L37.3164429,66.0588984 L74.0292226,66.0588984 L74.0292226,90.1235302 C74.0292226,92.3741931 75.8595985,94.1980062 78.1227151,94.1980062 C80.3858316,94.1980062 82.2162076,92.3761333 82.2162076,90.1235302 L82.2162076,66.0588984 L117.771114,66.0588984 L100.533612,87.5857136 C99.1242808,89.343559 99.4166731,91.9085387 101.184672,93.3113226 C101.939044,93.9089124 102.839613,94.1980062 103.734333,94.1980062 C104.93704,94.1980062 106.130001,93.6722048 106.938953,92.6632869 L128.242657,66.0588984 L152.136958,66.0588984 C153.458571,66.0588984 154.696365,65.4244443 155.466332,64.3553794 C156.236298,63.2843742 156.437074,61.912634 156.012131,60.6689486 Z" id="Fill-1"></path>
                    <path d="M118.62938,161.822004 C118.62938,165.43674 115.966109,168.379298 112.693196,168.379298 L39.9008139,168.379298 L39.9008139,102.725128 L63.2292971,102.725128 L63.2292971,134.821143 C63.2292971,136.413251 64.0341722,137.875392 65.3179202,138.606462 C65.8778333,138.927321 66.4893173,139.083689 67.0971177,139.083689 C67.8817327,139.083689 68.6645059,138.821722 69.3275608,138.30388 L78.1351407,131.446035 L88.4640634,138.452125 C89.6557204,139.260364 91.1568032,139.298948 92.3779294,138.541478 C93.6008974,137.78807 94.3578851,136.364513 94.3578851,134.819112 L94.3578851,102.725128 L118.62938,102.725128 C118.62938,102.725128 118.62938,161.822004 118.62938,161.822004 Z M86.6240859,102.725128 L86.6240859,127.191613 L80.0137964,122.707715 C79.3894197,122.285319 78.6876865,122.076152 77.9859534,122.076152 C77.2031802,122.076152 76.420407,122.338118 75.7555102,122.85596 L70.9612546,126.58848 L70.9612546,102.725128 L86.6240859,102.725128 Z M122.4972,94.1980062 L90.4919064,94.1980062 L67.0971177,94.1980062 L36.0329934,94.1980062 C33.896483,94.1980062 32.1651729,96.1048811 32.1651729,98.4625826 L32.1651729,172.643874 C32.1651729,174.999545 33.8946412,176.908451 36.0329934,176.908451 L112.693196,176.908451 C120.231763,176.908451 126.363179,170.141989 126.363179,161.822004 L126.363179,98.4605519 C126.363179,96.1048811 124.633711,94.1980062 122.4972,94.1980062 Z" id="Fill-3"></path>
                    <path d="M58.5492406,156.23084 L44.838815,156.23084 C42.9145447,156.23084 41.3552222,158.79913 41.3552222,161.97462 C41.3552222,165.150111 42.9128858,167.718401 44.838815,167.718401 L58.5492406,167.718401 C60.4735109,167.718401 62.0328334,165.150111 62.0328334,161.97462 C62.0328334,158.79913 60.4735109,156.23084 58.5492406,156.23084" id="Fill-5"></path>
                </g>
            </g>
        </g>
    </g>
</svg>