<?xml version="1.0" encoding="UTF-8"?>
<svg width="250px" height="206px" viewBox="0 0 250 206" version="1.1" xmlns="http://www.w3.org/2000/svg" xmlns:xlink="http://www.w3.org/1999/xlink">
    <!-- Generator: Sketch 49 (51002) - http://www.bohemiancoding.com/sketch -->
    <title>Package loading@3x</title>
    <desc>Created with Sketch.</desc>
    <defs>
        <polygon id="path-1" points="0 0.087692792 137.721842 0.087692792 137.721842 85.357721 0 85.357721"></polygon>
    </defs>
    <g id="Desktop" stroke="none" stroke-width="1" fill="none" fill-rule="evenodd">
        <g id="Loading-dispatch-Desktop" transform="translate(-595.000000, -290.000000)">
            <g id="Loading" transform="translate(500.000000, 223.000000)">
                <g id="Package-loading" transform="translate(95.000000, 67.000000)">
                    <g id="Group-4" fill="#F6F6F6">
                        <g id="Group-2">
                            <ellipse id="Oval-2" cx="22.5523211" cy="22.8545873" rx="22.5523211" ry="22.8545873"></ellipse>
                            <ellipse id="Oval-2-Copy" cx="174.932869" cy="22.8545873" rx="22.5523211" ry="22.8545873"></ellipse>
                            <rect id="Rectangle-5" x="20.7237545" y="0" width="153.599592" height="45.7091745"></rect>
                        </g>
                        <g id="Group-2-Copy-2" transform="translate(18.285666, 134.656757)">
                            <ellipse id="Oval-2" cx="22.5523211" cy="22.8545873" rx="22.5523211" ry="22.8545873"></ellipse>
                            <ellipse id="Oval-2-Copy" cx="139.580582" cy="22.8545873" rx="22.5523211" ry="22.8545873"></ellipse>
                            <rect id="Rectangle-5" x="23.1618433" y="0" width="117.028261" height="45.7091745"></rect>
                        </g>
                        <g id="Group-2-Copy" transform="translate(52.418908, 63.004538)">
                            <ellipse id="Oval-2" cx="22.5523211" cy="22.8545873" rx="22.5523211" ry="22.8545873"></ellipse>
                            <ellipse id="Oval-2-Copy" cx="174.932869" cy="22.8545873" rx="22.5523211" ry="22.8545873"></ellipse>
                            <rect id="Rectangle-5" x="20.7237545" y="0" width="153.599592" height="45.7091745"></rect>
                        </g>
                        <rect id="Rectangle-6" x="79.2378849" y="39.532259" width="91.4283288" height="28.4138112"></rect>
                        <path d="M73.142663,45.7091745 C76.9240605,51.3191419 76.9240605,57.028286 73.142663,62.8366068 C73.142663,62.8366068 78.4251887,62.8366068 88.99024,62.8366068 L88.99024,45.7091745 L73.142663,45.7091745 Z" id="Path-2"></path>
                        <path d="M159.694814,45.7091745 C163.476212,51.3191419 163.476212,57.028286 159.694814,62.8366068 C159.694814,62.8366068 164.97734,62.8366068 175.542391,62.8366068 L175.542391,45.7091745 L159.694814,45.7091745 Z" id="Path-2-Copy" transform="translate(167.618603, 54.272891) scale(-1, 1) translate(-167.618603, -54.272891) "></path>
                    </g>
                    <g id="Page-1" transform="translate(56.000000, 29.000000)">
                        <g id="Group-3">
                            <mask id="mask-2" fill="white">
                                <use xlink:href="#path-1"></use>
                            </mask>
                            <g id="Clip-2"></g>
                            <path d="M94.1042012,52.4403385 C93.7607552,29.6783186 86.5483894,16.1961992 80.3663616,8.66722336 C101.48829,13.0445349 119.519204,29.1530412 128.963969,52.4403385 L94.1042012,52.4403385 Z M57.3554803,8.84231582 C51.1734525,16.3712916 43.9610867,29.8534111 43.6176407,52.6154309 L8.92959573,52.6154309 C18.2026374,29.1530412 36.2335519,13.0445349 57.3554803,8.84231582 Z M50.8300065,52.4403385 C51.3451754,21.7991579 65.083015,10.2430555 68.8609209,7.79176105 C72.4671038,10.2430555 86.3766664,21.7991579 86.8918354,52.4403385 L50.8300065,52.4403385 Z M137.550119,54.8916329 C126.388124,21.6240654 99.427614,0.087692792 68.8609209,0.087692792 C38.2942278,0.087692792 11.3337177,21.6240654 0.171722995,54.8916329 C-0.171722995,55.9421877 1.89117736e-16,57.1678349 0.686891979,58.2183897 C1.37378396,59.2689444 2.40412193,59.7942218 3.60618289,59.7942218 L23.6977733,59.7942218 L42.4155797,83.7818889 C43.1024717,84.6573512 44.1328097,85.1826286 45.1631476,85.1826286 C46.0217626,85.1826286 46.7086546,85.0075361 47.3955466,84.3071663 C48.9410535,83.0815191 49.2844995,80.8053171 47.9107155,79.0543925 L32.799092,59.6191294 L65.083015,59.6191294 L65.083015,81.5056869 C65.083015,83.6067964 66.628522,85.1826286 68.6891979,85.1826286 C70.7498739,85.1826286 72.2953808,83.6067964 72.2953808,81.5056869 L72.2953808,59.7942218 L103.548966,59.7942218 L88.4373423,79.2294849 C87.2352814,80.8053171 87.4070044,83.0815191 88.9525113,84.4822587 C89.6394033,85.0075361 90.3262953,85.357721 91.1849102,85.357721 C92.2152482,85.357721 93.2455862,84.8324437 93.9324782,83.9569814 L112.650285,59.9693143 L134.115659,59.9693143 C135.31772,59.9693143 136.348058,59.4440369 137.03495,58.3934821 C137.721842,57.3429274 137.893565,56.1172801 137.550119,54.8916329 Z" id="Fill-1" fill="#5626D9" mask="url(#mask-2)"></path>
                        </g>
                        <path d="M106.25221,145.272074 C106.25221,148.434972 103.845364,150.895004 100.750849,150.895004 L32.8434156,150.895004 L32.8434156,94.1385561 L54.6769447,94.1385561 L54.6769447,121.901772 C54.6769447,123.307505 55.3646149,124.537521 56.5680377,125.240387 C57.0837904,125.59182 57.5995431,125.59182 58.2872133,125.59182 C58.9748835,125.59182 59.8344712,125.416103 60.3502239,124.888954 L68.6022664,118.914591 L78.2296493,124.888954 C79.2611546,125.59182 80.8084125,125.59182 81.8399178,124.888954 C83.0433407,124.186087 83.7310109,122.956072 83.7310109,121.726056 L83.7310109,94.1385561 L106.424128,94.1385561 C106.25221,94.1385561 106.25221,145.272074 106.25221,145.272074 Z M76.3385562,94.1385561 L76.3385562,115.224543 L70.1495243,111.358779 C69.6337717,111.007346 68.9461015,110.831629 68.2584313,110.831629 C67.5707611,110.831629 66.8830908,111.007346 66.1954206,111.534495 L61.7255643,114.697393 L61.7255643,94.1385561 L76.3385562,94.1385561 Z M109.862479,86.7584607 L79.9488248,86.7584607 L58.1152957,86.7584607 L29.233147,86.7584607 C27.1701364,86.7584607 25.6228784,88.3399097 25.6228784,90.4485084 L25.6228784,154.585052 C25.6228784,156.69365 27.1701364,158.2751 29.233147,158.2751 L100.750849,158.2751 C107.799468,158.2751 113.472747,152.476453 113.472747,145.272074 L113.472747,90.4485084 C113.472747,88.3399097 111.925489,86.7584607 109.862479,86.7584607 Z" id="Fill-4" fill="#5626D9"></path>
                        <path d="M57.3171589,137.313326 L42.7340807,137.313326 C40.6256838,137.313326 39.0443862,138.89867 39.0443862,141.012463 C39.0443862,143.126255 40.6256838,144.711599 42.7340807,144.711599 L57.3171589,144.711599 C59.4255558,144.711599 61.0068534,143.126255 61.0068534,141.012463 C61.0068534,138.89867 59.4255558,137.313326 57.3171589,137.313326" id="Fill-6" fill="#5626D9"></path>
                    </g>
                    <g id="Group-5-Copy" transform="translate(187.000000, 120.000000)" stroke="#12BDEB" stroke-linecap="round" stroke-linejoin="round" stroke-width="4">
                        <path d="M0.150681992,11.724942 C6.26731041,11.724942 11.2258174,6.63816545 11.2258174,0.363308531" id="Oval-3"></path>
                        <path d="M0.150681992,23.0865755 C6.26731041,23.0865755 11.2258174,17.9997989 11.2258174,11.724942" id="Oval-3-Copy-2" transform="translate(5.688250, 17.405759) rotate(-90.000000) translate(-5.688250, -17.405759) "></path>
                        <path d="M11.2258174,11.724942 C17.3424459,11.724942 22.3009529,6.63816545 22.3009529,0.363308531" id="Oval-3-Copy" transform="translate(16.763385, 6.044125) rotate(-270.000000) translate(-16.763385, -6.044125) "></path>
                        <path d="M11.2258174,23.0865755 C17.3424459,23.0865755 22.3009529,17.9997989 22.3009529,11.724942" id="Oval-3-Copy-3" transform="translate(16.763385, 17.405759) rotate(-180.000000) translate(-16.763385, -17.405759) "></path>
                    </g>
                    <g id="Group-5-Copy-3" transform="translate(45.000000, 180.000000)" stroke="#12BDEB" stroke-linecap="round" stroke-linejoin="round" stroke-width="4">
                        <path d="M0.150681992,11.724942 C6.26731041,11.724942 11.2258174,6.63816545 11.2258174,0.363308531" id="Oval-3"></path>
                        <path d="M0.150681992,23.0865755 C6.26731041,23.0865755 11.2258174,17.9997989 11.2258174,11.724942" id="Oval-3-Copy-2" transform="translate(5.688250, 17.405759) rotate(-90.000000) translate(-5.688250, -17.405759) "></path>
                        <path d="M11.2258174,11.724942 C17.3424459,11.724942 22.3009529,6.63816545 22.3009529,0.363308531" id="Oval-3-Copy" transform="translate(16.763385, 6.044125) rotate(-270.000000) translate(-16.763385, -6.044125) "></path>
                        <path d="M11.2258174,23.0865755 C17.3424459,23.0865755 22.3009529,17.9997989 22.3009529,11.724942" id="Oval-3-Copy-3" transform="translate(16.763385, 17.405759) rotate(-180.000000) translate(-16.763385, -17.405759) "></path>
                    </g>
                    <g id="Group-5-Copy-2" transform="translate(33.000000, 28.000000)" stroke="#12BDEB" stroke-linecap="round" stroke-linejoin="round" stroke-width="4">
                        <path d="M0.150681992,11.724942 C6.26731041,11.724942 11.2258174,6.63816545 11.2258174,0.363308531" id="Oval-3"></path>
                        <path d="M0.150681992,23.0865755 C6.26731041,23.0865755 11.2258174,17.9997989 11.2258174,11.724942" id="Oval-3-Copy-2" transform="translate(5.688250, 17.405759) rotate(-90.000000) translate(-5.688250, -17.405759) "></path>
                        <path d="M11.2258174,11.724942 C17.3424459,11.724942 22.3009529,6.63816545 22.3009529,0.363308531" id="Oval-3-Copy" transform="translate(16.763385, 6.044125) rotate(-270.000000) translate(-16.763385, -6.044125) "></path>
                        <path d="M11.2258174,23.0865755 C17.3424459,23.0865755 22.3009529,17.9997989 22.3009529,11.724942" id="Oval-3-Copy-3" transform="translate(16.763385, 17.405759) rotate(-180.000000) translate(-16.763385, -17.405759) "></path>
                    </g>
                </g>
            </g>
        </g>
    </g>
</svg>