<?xml version="1.0" encoding="UTF-8"?>
<svg width="71px" height="72px" viewBox="0 0 71 72" version="1.1" xmlns="http://www.w3.org/2000/svg" xmlns:xlink="http://www.w3.org/1999/xlink">
    <!-- Generator: Sketch 49 (51002) - http://www.bohemiancoding.com/sketch -->
    <title>Package Icon@3x</title>
    <desc>Created with Sketch.</desc>
    <defs>
        <filter x="-11.1%" y="-7.8%" width="122.2%" height="121.9%" filterUnits="objectBoundingBox" id="filter-1">
            <feOffset dx="0" dy="2" in="SourceAlpha" result="shadowOffsetOuter1"></feOffset>
            <feGaussianBlur stdDeviation="2" in="shadowOffsetOuter1" result="shadowBlurOuter1"></feGaussianBlur>
            <feColorMatrix values="0 0 0 0 0.266681439   0 0 0 0 0.0838346181   0 0 0 0 0.771497662  0 0 0 1 0" type="matrix" in="shadowBlurOuter1" result="shadowMatrixOuter1"></feColorMatrix>
            <feMerge>
                <feMergeNode in="shadowMatrixOuter1"></feMergeNode>
                <feMergeNode in="SourceGraphic"></feMergeNode>
            </feMerge>
        </filter>
    </defs>
    <g id="Desktop" stroke="none" stroke-width="1" fill="none" fill-rule="evenodd">
        <g id="Login-Desktop" transform="translate(-685.000000, -291.000000)">
            <g id="Group-2" transform="translate(485.000000, 293.000000)">
                <g id="Package-Icon" filter="url(#filter-1)" transform="translate(204.000000, 0.000000)">
                    <rect id="Rectangle-7" fill="#5626D9" x="0" y="0" width="63" height="64" rx="6"></rect>
                    <g id="Page-1" transform="translate(17.000000, 15.000000)" fill="#FFFFFF">
                        <path d="M20.505601,11.0661998 C20.422879,6.25977343 18.8631372,3.39423275 17.508142,1.80556128 C22.1072653,2.72243048 26.0438632,6.13038105 28.0804734,11.0661998 L20.505601,11.0661998 Z M12.4725755,1.8092688 C11.118329,3.39831102 9.56083307,6.26348095 9.4784853,11.0661998 L1.91933383,11.0661998 C3.95444681,6.13816684 7.88281,2.73207003 12.4725755,1.8092688 Z M11.0494563,11.0661998 C11.1677376,4.55505664 14.1779231,2.13775489 14.9912946,1.60350154 C15.7893194,2.13553038 18.8137286,4.57841401 18.9338814,11.0661998 L11.0494563,11.0661998 Z M29.9580027,11.5930381 C27.5291177,4.55060762 21.6580956,0 14.9999036,0 C8.34320892,0 2.47181254,4.55023687 0.0421788609,11.5930381 C-0.0397946064,11.83069 -0.000866567098,12.0931823 0.146610812,12.2974665 C0.294088192,12.5017508 0.532148124,12.6229866 0.785928996,12.6229866 L5.15485279,12.6229866 L9.24566568,17.7067353 C9.40100353,17.899897 9.62970576,18 9.86102815,18 C10.0328356,18 10.2057659,17.944758 10.3506231,17.8305664 C10.6901205,17.5621421 10.7462667,17.072379 10.475642,16.7364779 L7.16563574,12.6229866 L14.2153539,12.6229866 L14.2153539,17.2214212 C14.2153539,17.6514933 14.5668292,18 15.0014009,18 C15.4359725,18 15.7874478,17.6518641 15.7874478,17.2214212 L15.7874478,12.6229866 L22.614827,12.6229866 L19.3048207,16.7364779 C19.034196,17.072379 19.0903422,17.5625129 19.4298396,17.8305664 C19.5746969,17.944758 19.7476272,18 19.9194346,18 C20.1503827,18 20.3794592,17.8995263 20.5347971,17.7067353 L24.62561,12.6229866 L29.2138783,12.6229866 C29.4676591,12.6229866 29.7053448,12.5017508 29.8531965,12.2974665 C30.0010481,12.0928115 30.0396019,11.83069 29.9580027,11.5930381 Z" id="Fill-1"></path>
                        <path d="M22.5221727,31.0815881 C22.5221727,31.7808441 22.0132567,32.35007 21.3878461,32.35007 L7.47817926,32.35007 L7.47817926,19.6495372 L11.9359456,19.6495372 L11.9359456,25.858381 C11.9359456,26.1663679 12.0897466,26.4492131 12.335054,26.5906357 C12.442046,26.6527045 12.5588925,26.6829532 12.6750352,26.6829532 C12.8249648,26.6829532 12.9745425,26.6322768 13.1012435,26.5321024 L14.7842562,25.2054801 L16.7579775,26.5607798 C16.9856875,26.7171303 17.2725246,26.7245943 17.5058658,26.5780648 C17.7395589,26.432321 17.8842093,26.1569398 17.8842093,25.8579882 L17.8842093,19.6495372 L22.5221727,19.6495372 C22.5221727,19.6495372 22.5221727,31.0815881 22.5221727,31.0815881 Z M16.406382,19.6495372 L16.406382,24.3824793 L15.1432426,23.5150875 C15.0239324,23.4333767 14.8898405,23.3929141 14.7557485,23.3929141 C14.6061708,23.3929141 14.4565931,23.4435906 14.3295401,23.5437649 L13.4134209,24.2658057 L13.4134209,19.6495372 L16.406382,19.6495372 Z M23.2612623,18 L17.1454716,18 L12.6750352,18 L6.73908963,18 C6.3308306,18 6,18.3688772 6,18.824965 L6,33.175035 C6,33.6307299 6.33047865,34 6.73908963,34 L21.3878461,34 C22.828367,34 24,32.6910555 24,31.0815881 L24,18.8245722 C24,18.3688772 23.6695214,18 23.2612623,18 Z" id="Fill-3"></path>
                        <path d="M11.3261131,30 L8.67388688,30 C8.3016446,30 8,30.4471429 8,31 C8,31.5528571 8.30132371,32 8.67388688,32 L11.3261131,32 C11.6983554,32 12,31.5528571 12,31 C12,30.4471429 11.6983554,30 11.3261131,30" id="Fill-5"></path>
                    </g>
                </g>
            </g>
        </g>
    </g>
</svg>