<?xml version="1.0" encoding="UTF-8"?>
<svg width="15px" height="10px" viewBox="0 0 15 10" version="1.1" xmlns="http://www.w3.org/2000/svg" xmlns:xlink="http://www.w3.org/1999/xlink">
    <!-- Generator: Sketch 50 (54983) - http://www.bohemiancoding.com/sketch -->
    <title>Atom / Flag / UK@3x</title>
    <desc>Created with Sketch.</desc>
    <defs></defs>
    <g id="Atom-/-Flag-/-UK" stroke="none" stroke-width="1" fill="none" fill-rule="evenodd">
        <polygon id="Fill-1" fill="#FFFFFF" points="0 10 15 10 15 0 0 0"></polygon>
        <path d="M0,0.769054381 L15,0.769054381 L15,0 L0,0 L0,0.769054381 Z M0,2.30760411 L15,2.30760411 L15,1.53828515 L0,1.53828515 L0,2.30760411 Z M0,3.84606565 L15,3.84606565 L15,3.07692308 L0,3.07692308 L0,3.84606565 Z M0,5.38461538 L15,5.38461538 L15,4.615561 L0,4.615561 L0,5.38461538 Z M0,6.92334151 L15,6.92334151 L15,6.15384615 L0,6.15384615 L0,6.92334151 Z M0,8.46180304 L15,8.46180304 L15,7.69248408 L0,7.69248408 L0,8.46180304 Z M0,10 L15,10 L15,9.23068104 L0,9.23068104 L0,10 Z" id="Fill-2" fill="#F30004"></path>
        <polygon id="Fill-3" fill="#0132BF" points="0 5.45454545 7.94117647 5.45454545 7.94117647 0 0 0"></polygon>
        <path d="M5.5542835,1.33454089 L5.73898844,1.21141607 L5.51073884,1.21141607 L5.44002375,1.01177206 L5.36939863,1.21141607 L5.14132897,1.21141607 L5.3260339,1.33454089 L5.25558872,1.53401964 L5.44020369,1.41072954 L5.62472869,1.53401964 L5.5542835,1.33454089 Z M4.26908621,1.33454089 L4.45379115,1.21141607 L4.22536162,1.21141607 L4.15482646,1.01177206 L4.08420134,1.21141607 L3.85595174,1.21141607 L4.04065668,1.33454089 L3.97021149,1.53401964 L4.15482646,1.41072954 L4.3395314,1.53401964 L4.26908621,1.33454089 Z M2.98370899,1.33454089 L3.16832396,1.21141607 L2.94007436,1.21141607 L2.86944924,1.01177206 L2.79900405,1.21141607 L2.57057452,1.21141607 L2.75545939,1.33454089 L2.6847443,1.53401964 L2.86944924,1.41072954 L3.05415417,1.53401964 L2.98370899,1.33454089 Z M6.85513528,2.38556415 L7.03984022,2.26243933 L6.81159062,2.26243933 L6.74105546,2.06279531 L6.67043034,2.26243933 L6.44218074,2.26243933 L6.62688568,2.38556415 L6.55644049,2.58487763 L6.74105546,2.4617528 L6.9257604,2.58487763 L6.85513528,2.38556415 Z M5.56975805,2.38556415 L5.75446299,2.26243933 L5.52621339,2.26243933 L5.45567824,2.06279531 L5.38505312,2.26243933 L5.15680352,2.26243933 L5.34150845,2.38556415 L5.27106327,2.58487763 L5.45567824,2.4617528 L5.64038318,2.58487763 L5.56975805,2.38556415 Z M6.84847762,3.36329095 L7.03309259,3.24000086 L6.80484299,3.24000086 L6.73439781,3.04052212 L6.66377269,3.24000086 L6.43552309,3.24000086 L6.62022802,3.36329095 L6.54969287,3.56260443 L6.73421787,3.43931434 L6.91892281,3.56260443 L6.84847762,3.36329095 Z M5.5631004,3.36329095 L5.74771537,3.24000086 L5.51946577,3.24000086 L5.44902058,3.04052212 L5.37839546,3.24000086 L5.15014586,3.24000086 L5.33494077,3.36329095 L5.26449558,3.56260443 L5.44902058,3.43931434 L5.63354558,3.56260443 L5.5631004,3.36329095 Z M6.87411859,4.34614107 L7.05882353,4.22301624 L6.83039399,4.22301624 L6.75985884,4.0235375 L6.68923372,4.22301624 L6.46116405,4.22301624 L6.64568906,4.34614107 L6.57524387,4.54545455 L6.75985884,4.42232972 L6.94456378,4.54545455 L6.87411859,4.34614107 Z M5.58874137,4.34614107 L5.77326637,4.22301624 L5.54510674,4.22301624 L5.47448161,4.0235375 L5.40403643,4.22301624 L5.17578683,4.22301624 L5.36049177,4.34614107 L5.28995661,4.54545455 L5.47448161,4.42232972 L5.65918655,4.54545455 L5.58874137,4.34614107 Z M4.30336414,4.34614107 L4.48779917,4.22301624 L4.25972951,4.22301624 L4.18928432,4.0235375 L4.1186592,4.22301624 L3.8904096,4.22301624 L4.07511454,4.34614107 L4.00439945,4.54545455 L4.18910439,4.42232972 L4.37380933,4.54545455 L4.30336414,4.34614107 Z M4.27781314,3.36329095 L4.46251808,3.24000086 L4.23426848,3.24000086 L4.16364336,3.04052212 L4.09301823,3.24000086 L3.86476864,3.24000086 L4.0493836,3.36329095 L3.97893842,3.56260443 L4.16364336,3.43931434 L4.34834829,3.56260443 L4.27781314,3.36329095 Z M4.28456076,2.38556415 L4.4689958,2.26243933 L4.24092613,2.26243933 L4.17030101,2.06279531 L4.09967589,2.26243933 L3.87142629,2.26243933 L4.05613123,2.38556415 L3.98559607,2.58487763 L4.17030101,2.4617528 L4.35500595,2.58487763 L4.28456076,2.38556415 Z M1.69833176,1.33454089 L1.88294673,1.21141607 L1.65469713,1.21141607 L1.58407201,1.01177206 L1.51362682,1.21141607 L1.28537723,1.21141607 L1.46990223,1.33454089 L1.39936707,1.53401964 L1.58407201,1.41072954 L1.76877695,1.53401964 L1.69833176,1.33454089 Z M0.412954537,1.33454089 L0.597569506,1.21141607 L0.369499844,1.21141607 L0.298874721,1.01177206 L0.228249599,1.21141607 L0,1.21141607 L0.184614969,1.33454089 L0.113989847,1.53401964 L0.298874721,1.41072954 L0.483399722,1.53401964 L0.412954537,1.33454089 Z M2.99918354,2.38556415 L3.18379851,2.26243933 L2.95554891,2.26243933 L2.88492379,2.06279531 L2.8144786,2.26243933 L2.58604906,2.26243933 L2.770754,2.38556415 L2.70021885,2.58487763 L2.88492379,2.4617528 L3.06962872,2.58487763 L2.99918354,2.38556415 Z M2.99243591,3.36329095 L3.17714085,3.24000086 L2.94871132,3.24000086 L2.87826613,3.04052212 L2.80782095,3.24000086 L2.57939141,3.24000086 L2.76418632,3.36329095 L2.69374113,3.56260443 L2.87826613,3.43931434 L3.06297107,3.56260443 L2.99243591,3.36329095 Z M3.01798691,4.34614107 L3.20260188,4.22301624 L2.97435228,4.22301624 L2.90372716,4.0235375 L2.83328198,4.22301624 L2.60503238,4.22301624 L2.78964735,4.34614107 L2.71920216,4.54545455 L2.9039071,4.42232972 L3.08861204,4.54545455 L3.01798691,4.34614107 Z M1.73269966,4.34614107 L1.91722466,4.22301624 L1.68897506,4.22301624 L1.61852987,4.0235375 L1.54808469,4.22301624 L1.31965515,4.22301624 L1.50427012,4.34614107 L1.43382494,4.54545455 L1.61852987,4.42232972 L1.80323481,4.54545455 L1.73269966,4.34614107 Z M1.70705869,3.36329095 L1.89176363,3.24000086 L1.66351403,3.24000086 L1.5928889,3.04052212 L1.52244372,3.24000086 L1.29410415,3.24000086 L1.47880909,3.36329095 L1.4083639,3.56260443 L1.5928889,3.43931434 L1.77768381,3.56260443 L1.70705869,3.36329095 Z M1.71371634,2.38556415 L1.89842128,2.26243933 L1.67035162,2.26243933 L1.5997265,2.06279531 L1.52910137,2.26243933 L1.30085177,2.26243933 L1.48546674,2.38556415 L1.41502156,2.58487763 L1.5997265,2.4617528 L1.78443143,2.58487763 L1.71371634,2.38556415 Z M0.428339118,2.38556415 L0.613223992,2.26243933 L0.384974393,2.26243933 L0.31434927,2.06279531 L0.243724148,2.26243933 L0.0154745491,2.26243933 L0.200089518,2.38556415 L0.129644333,2.58487763 L0.31434927,2.4617528 L0.498874272,2.58487763 L0.428339118,2.38556415 Z M0.421681463,3.36329095 L0.6063864,3.24000086 L0.378136801,3.24000086 L0.307691616,3.04052212 L0.236976525,3.24000086 L0.00872692594,3.24000086 L0.1936118,3.36329095 L0.122986678,3.56260443 L0.307691616,3.43931434 L0.492306585,3.56260443 L0.421681463,3.36329095 Z M0.447142494,4.34614107 L0.631847432,4.22301624 L0.403777769,4.22301624 L0.333152647,4.0235375 L0.262707461,4.22301624 L0.0343678939,4.22301624 L0.219072832,4.34614107 L0.148627646,4.54545455 L0.333152647,4.42232972 L0.517857585,4.54545455 L0.447142494,4.34614107 Z M6.19710707,0.828572231 L6.3815421,0.705282138 L6.1532925,0.705282138 L6.08284732,0.50613393 L6.01240213,0.705282138 L5.7839726,0.705282138 L5.96858757,0.828572231 L5.89796244,1.02788571 L6.08284732,0.904760882 L6.26755225,1.02788571 L6.19710707,0.828572231 Z M4.91163987,0.828572231 L5.09634481,0.705282138 L4.86809521,0.705282138 L4.79747009,0.50613393 L4.72702491,0.705282138 L4.49877531,0.705282138 L4.68339028,0.828572231 L4.61276515,1.02788571 L4.79747009,0.904760882 L4.98235497,1.02788571 L4.91163987,0.828572231 Z M3.62626265,0.828572231 L3.81096759,0.705282138 L3.58271799,0.705282138 L3.5122728,0.50613393 L3.44164768,0.705282138 L3.21330811,0.705282138 L3.39801305,0.828572231 L3.32756786,1.02788571 L3.51209287,0.904760882 L3.6967978,1.02788571 L3.62626265,0.828572231 Z M6.21249165,1.87943022 L6.39701665,1.7563054 L6.16876705,1.7563054 L6.09832187,1.55674402 L6.02787668,1.7563054 L5.79944714,1.7563054 L5.98406211,1.87959549 L5.91361693,2.07890897 L6.09832187,1.95578414 L6.2830268,2.07890897 L6.21249165,1.87943022 Z M6.20583399,2.85732229 L6.39053893,2.7340322 L6.16228933,2.7340322 L6.09184415,2.53463609 L6.02112906,2.7340322 L5.79287946,2.7340322 L5.9775844,2.85732229 L5.90695927,3.05680104 L6.09166421,2.93351094 L6.27627918,3.05680104 L6.20583399,2.85732229 Z M6.23129503,3.84017241 L6.41599996,3.71688231 L6.18775036,3.71688231 L6.11712524,3.51740357 L6.04668006,3.71688231 L5.81843046,3.71688231 L6.00304543,3.84017241 L5.93260024,4.03965115 L6.11730518,3.91636106 L6.30201012,4.03965115 L6.23129503,3.84017241 Z M4.9459178,3.84017241 L5.13062274,3.71688231 L4.90237314,3.71688231 L4.83192795,3.51740357 L4.7613928,3.71688231 L4.53296326,3.71688231 L4.7176682,3.84017241 L4.64722302,4.03965115 L4.83174802,3.91636106 L5.01654292,4.03965115 L4.9459178,3.84017241 Z M4.92045677,2.85732229 L5.10516171,2.7340322 L4.87691211,2.7340322 L4.80637695,2.53463609 L4.73575183,2.7340322 L4.50750223,2.7340322 L4.69220717,2.85715702 L4.62176198,3.05680104 L4.80628699,2.93351094 L4.99108189,3.05680104 L4.92045677,2.85732229 Z M4.92711442,1.87943022 L5.11181936,1.7563054 L4.88338983,1.7563054 L4.81312458,1.55674402 L4.74249945,1.7563054 L4.51415989,1.7563054 L4.69886482,1.87959549 L4.6282397,2.07890897 L4.81294464,1.95561887 L4.99773955,2.07890897 L4.92711442,1.87943022 Z M2.34088542,0.828572231 L2.52559036,0.705282138 L2.29734076,0.705282138 L2.22671564,0.50613393 L2.15618049,0.705282138 L1.92793089,0.705282138 L2.11281576,0.828572231 L2.04219064,1.02788571 L2.22689558,0.904760882 L2.41151055,1.02788571 L2.34088542,0.828572231 Z M1.05568813,0.828572231 L1.24021313,0.705282138 L1.01196354,0.705282138 L0.94151835,0.50613393 L0.870983196,0.705282138 L0.64255366,0.705282138 L0.827438535,0.828572231 L0.756813412,1.02788571 L0.94151835,0.904760882 L1.12595338,1.02788571 L1.05568813,0.828572231 Z M3.6417372,1.87959549 L3.82644214,1.7563054 L3.59819254,1.7563054 L3.52756741,1.55674402 L3.45703226,1.7563054 L3.22878266,1.7563054 L3.4134876,1.87959549 L3.34304241,2.07890897 L3.52756741,1.95561887 L3.71236232,2.07890897 L3.6417372,1.87959549 Z M3.63507954,2.85732229 L3.81978448,2.7340322 L3.59153488,2.7340322 L3.52099973,2.53463609 L3.45037461,2.7340322 L3.22212501,2.7340322 L3.40682994,2.85732229 L3.33638476,3.05680104 L3.52099973,2.93351094 L3.70570467,3.05680104 L3.63507954,2.85732229 Z M3.66054057,3.84017241 L3.84542545,3.71688231 L3.61717585,3.71688231 L3.54673066,3.51740357 L3.47601557,3.71688231 L3.24776597,3.71688231 L3.43229098,3.84017241 L3.36184579,4.03965115 L3.54655073,3.91636106 L3.7311657,4.03965115 L3.66054057,3.84017241 Z M2.26108353,3.80612715 L2.26128353,3.80612715 L2.26108353,3.80612715 Z M2.37534329,3.84017241 L2.56004822,3.71688231 L2.33179862,3.71688231 L2.26126347,3.51740357 L2.19063835,3.71688231 L1.96238875,3.71688231 L2.14709369,3.84017241 L2.07646856,4.03965115 L2.26108353,3.91636106 L2.44578847,4.03965115 L2.37534329,3.84017241 Z M2.34988225,2.85732229 L2.53458719,2.7340322 L2.30606769,2.7340322 L2.23544257,2.53463609 L2.16499738,2.7340322 L1.93674778,2.7340322 L2.12163265,2.85732229 L2.05100753,3.05680104 L2.2356225,2.93351094 L2.42032744,3.05680104 L2.34988225,2.85732229 Z M2.35635997,1.87959549 L2.54106491,1.7563054 L2.31281531,1.7563054 L2.24228016,1.55674402 L2.17165503,1.7563054 L1.94340544,1.7563054 L2.12829031,1.87959549 L2.05766519,2.07890897 L2.24228016,1.95578414 L2.42698509,2.07890897 L2.35635997,1.87959549 Z M6.83966073,0.322603569 L7.02436567,0.199313476 L6.79611607,0.199313476 L6.72549095,0 L6.65495579,0.199313476 L6.42670619,0.199313476 L6.61141113,0.322768838 L6.54096594,0.522082313 L6.72549095,0.39879222 L6.91010592,0.522082313 L6.83966073,0.322603569 Z M5.5542835,0.322603569 L5.73898844,0.199313476 L5.51073884,0.199313476 L5.44002375,0 L5.36957857,0.199313476 L5.14132897,0.199313476 L5.3260339,0.322768838 L5.25558872,0.522082313 L5.44020369,0.39879222 L5.62472869,0.522082313 L5.5542835,0.322603569 Z M1.07116268,1.87943022 L1.25568768,1.7563054 L1.02761802,1.7563054 L0.956902931,1.55674402 L0.886457745,1.7563054 L0.65802821,1.7563054 L0.842733147,1.87943022 L0.772287962,2.07890897 L0.956902931,1.95578414 L1.14160787,2.07890897 L1.07116268,1.87943022 Z M1.06450503,2.85732229 L1.24894006,2.7340322 L1.0208704,2.7340322 L0.950245276,2.53463609 L0.87980009,2.7340322 L0.651370555,2.7340322 L0.836255429,2.85732229 L0.765540338,3.05680104 L0.950245276,2.93351094 L1.13495021,3.05680104 L1.06450503,2.85732229 Z M1.08996606,3.84017241 L1.274671,3.71688231 L1.0464214,3.71688231 L0.975706307,3.51740357 L0.905261122,3.71688231 L0.677011523,3.71688231 L0.86171646,3.84017241 L0.791091338,4.03965115 L0.975886244,3.91636106 L1.16041125,4.03965115 L1.08996606,3.84017241 Z M4.26908621,0.322768838 L4.45379115,0.199313476 L4.22536162,0.199313476 L4.15482646,0 L4.08420134,0.199313476 L3.85595174,0.199313476 L4.04065668,0.322768838 L3.97021149,0.522082313 L4.15482646,0.39879222 L4.3395314,0.522082313 L4.26908621,0.322768838 Z M2.98370899,0.322603569 L3.16832396,0.199313476 L2.93989442,0.199313476 L2.86944924,0 L2.79900405,0.199313476 L2.57057452,0.199313476 L2.75545939,0.322768838 L2.6847443,0.522082313 L2.86944924,0.39879222 L3.05415417,0.522082313 L2.98370899,0.322603569 Z M1.69833176,0.322768838 L1.88294673,0.199313476 L1.65469713,0.199313476 L1.58407201,0 L1.51362682,0.199313476 L1.28537723,0.199313476 L1.47008216,0.322603569 L1.39936707,0.522082313 L1.58407201,0.39879222 L1.76877695,0.522082313 L1.69833176,0.322768838 Z M0.412954537,0.322603569 L0.597569506,0.199313476 L0.369319907,0.199313476 L0.298874721,0 L0.228249599,0.199313476 L0,0.199313476 L0.184614969,0.322768838 L0.113989847,0.522082313 L0.298874721,0.39879222 L0.483399722,0.522082313 L0.412954537,0.322603569 Z M6.79611607,1.21141607 L6.72549095,1.01177206 L6.65495579,1.21141607 L6.42670619,1.21141607 L6.61141113,1.33454089 L6.54096594,1.53401964 L6.72549095,1.41072954 L6.91010592,1.53401964 L6.83966073,1.33454089 L7.02436567,1.21141607 L6.79611607,1.21141607 Z" id="Fill-4" fill="#FFFFFF"></path>
    </g>
</svg>